<?xml version="1.0" encoding="UTF-8" standalone="no"?>
<svg width="56px" height="65px" viewBox="0 0 56 65" version="1.1" xmlns="http://www.w3.org/2000/svg" xmlns:xlink="http://www.w3.org/1999/xlink" xmlns:sketch="http://www.bohemiancoding.com/sketch/ns">
    <title>36kr</title>
    <description>Created with Sketch (http://www.bohemiancoding.com/sketch)</description>
    <defs></defs>
    <g id="Page 1" stroke="none" stroke-width="1" fill="none" fill-rule="evenodd">
        <g id="36kr" transform="translate(-1.000000, -1.000000)">
            <g id="hover" transform="translate(0.000000, 33.000000)" fill="#1D71B6">
                <g id="Imported-Layers" transform="translate(0.535156, 0.894531)">
                    <path d="M44.8229899,0.982971894 L36.8282166,0.982971894 L31.5354752,11.8553682 L31.5354752,0.982971894 L24.037425,0.982971894 L24.037425,31.2744764 L31.5354752,31.2744764 L31.5354752,20.3565621 L36.9331978,31.2744764 L44.8229899,31.2744764 L36.9501075,16.1696192 L44.8229899,0.982971894" id="Fill-2"></path>
                    <path d="M55.7734407,13.9726654 L48.7164522,13.9726654 C46.9247267,13.9726654 45.4711957,15.4399091 45.4711957,17.2485376 L45.4711957,31.2744764 L51.8665915,31.2744764 L51.8665915,20.5258321 L55.7734407,20.5258321 L55.7734407,13.9726654" id="Fill-3"></path>
                    <path d="M13.3145507,9.64347881 L17.6575297,9.64347881 L17.6575297,13.9520401 L13.3145507,13.9520401 L13.3145507,9.64347881 L13.3145507,9.64347881 Z M19.4957568,0.978704583 L12.3316734,0.978704583 C11.6975591,0.978704583 11.1874493,1.49718283 11.1874493,2.13514576 L11.1874493,14.980462 C11.1874493,15.6191361 11.6975591,16.1376144 12.3316734,16.1376144 L18.8017539,16.1376144 C19.4344591,16.1376144 19.9473872,15.6205586 19.9473872,14.980462 L19.9473872,8.60794477 C19.9473872,7.96927061 19.4344591,7.45079237 18.8017539,7.45079237 L13.3145507,7.45079237 L13.3145507,3.17281346 L19.4957568,3.17281346 L19.4957568,0.978704583 L19.4957568,0.978704583 Z M19.4957568,0.978704583" id="Fill-4"></path>
                    <path d="M7.88089505,0.978704583 L0.482189342,0.978704583 L0.482189342,3.17281346 L6.87406232,3.17281346 L6.87406232,7.48137476 L0.482189342,7.48137476 L0.482189342,9.6584144 L6.87406232,9.6584144 L6.87406232,13.9669757 L0.482189342,13.9669757 L0.482189342,16.1376144 L7.88089505,16.1376144 C8.51430486,16.1376144 9.02652837,15.6205586 9.02652837,14.980462 L9.02652837,2.13514576 C9.02652837,1.49718283 8.51430486,0.978704583 7.88089505,0.978704583" id="Fill-5"></path>
                </g>
            </g>
            <g id="normal" fill="#FFFFFF">
                <g id="Imported-Layers" transform="translate(0.535156, 0.894531)">
                    <path d="M44.8229899,0.982971894 L36.8282166,0.982971894 L31.5354752,11.8553682 L31.5354752,0.982971894 L24.037425,0.982971894 L24.037425,31.2744764 L31.5354752,31.2744764 L31.5354752,20.3565621 L36.9331978,31.2744764 L44.8229899,31.2744764 L36.9501075,16.1696192 L44.8229899,0.982971894" id="Fill-2"></path>
                    <path d="M55.7734407,13.9726654 L48.7164522,13.9726654 C46.9247267,13.9726654 45.4711957,15.4399091 45.4711957,17.2485376 L45.4711957,31.2744764 L51.8665915,31.2744764 L51.8665915,20.5258321 L55.7734407,20.5258321 L55.7734407,13.9726654" id="Fill-3"></path>
                    <path d="M13.3145507,9.64347881 L17.6575297,9.64347881 L17.6575297,13.9520401 L13.3145507,13.9520401 L13.3145507,9.64347881 L13.3145507,9.64347881 Z M19.4957568,0.978704583 L12.3316734,0.978704583 C11.6975591,0.978704583 11.1874493,1.49718282 11.1874493,2.13514576 L11.1874493,14.980462 C11.1874493,15.6191361 11.6975591,16.1376144 12.3316734,16.1376144 L18.8017539,16.1376144 C19.4344591,16.1376144 19.9473872,15.6205586 19.9473872,14.980462 L19.9473872,8.60794477 C19.9473872,7.96927061 19.4344591,7.45079237 18.8017539,7.45079237 L13.3145507,7.45079237 L13.3145507,3.17281346 L19.4957568,3.17281346 L19.4957568,0.978704583 L19.4957568,0.978704583 Z M19.4957568,0.978704583" id="Fill-4"></path>
                    <path d="M7.88089505,0.978704583 L0.482189342,0.978704583 L0.482189342,3.17281346 L6.87406232,3.17281346 L6.87406232,7.48137476 L0.482189342,7.48137476 L0.482189342,9.6584144 L6.87406232,9.6584144 L6.87406232,13.9669757 L0.482189342,13.9669757 L0.482189342,16.1376144 L7.88089505,16.1376144 C8.51430486,16.1376144 9.02652837,15.6205586 9.02652837,14.980462 L9.02652837,2.13514576 C9.02652837,1.49718282 8.51430486,0.978704583 7.88089505,0.978704583" id="Fill-5"></path>
                </g>
            </g>
        </g>
    </g>
</svg>